<svg data-v-423bf9ae="" xmlns="http://www.w3.org/2000/svg" viewBox="0 0 353 103" class="iconLeft"><!----><!----><!----><g data-v-423bf9ae="" id="14ee1e8a-b9c8-4c01-b8c8-10c31803face" fill="white" transform="matrix(5.725190568780254,0,0,5.725190568780254,109.06876372028795,3.1083968821039036)"><path d="M8.41 13.55L4.66 9.20L2.87 11.02L2.87 13.55L1.47 13.55L1.47 3.75L2.87 3.75L2.87 9.23L8.19 3.75L9.79 3.75L5.60 8.16L10.05 13.55L8.41 13.55ZM14.52 13.64L14.52 13.64Q13.41 13.64 12.53 13.15L12.53 13.15L12.53 13.15Q11.65 12.66 11.15 11.79L11.15 11.79L11.15 11.79Q10.65 10.93 10.65 9.84L10.65 9.84L10.65 9.84Q10.65 8.75 11.15 7.89L11.15 7.89L11.15 7.89Q11.65 7.03 12.53 6.54L12.53 6.54L12.53 6.54Q13.41 6.06 14.52 6.06L14.52 6.06L14.52 6.06Q15.62 6.06 16.50 6.54L16.50 6.54L16.50 6.54Q17.37 7.03 17.87 7.89L17.87 7.89L17.87 7.89Q18.37 8.75 18.37 9.84L18.37 9.84L18.37 9.84Q18.37 10.93 17.87 11.79L17.87 11.79L17.87 11.79Q17.37 12.66 16.50 13.15L16.50 13.15L16.50 13.15Q15.62 13.64 14.52 13.64L14.52 13.64ZM14.52 12.46L14.52 12.46Q15.23 12.46 15.80 12.13L15.80 12.13L15.80 12.13Q16.37 11.80 16.69 11.21L16.69 11.21L16.69 11.21Q17.01 10.61 17.01 9.84L17.01 9.84L17.01 9.84Q17.01 9.07 16.69 8.48L16.69 8.48L16.69 8.48Q16.37 7.88 15.80 7.56L15.80 7.56L15.80 7.56Q15.23 7.24 14.52 7.24L14.52 7.24L14.52 7.24Q13.80 7.24 13.24 7.56L13.24 7.56L13.24 7.56Q12.67 7.88 12.34 8.48L12.34 8.48L12.34 8.48Q12.01 9.07 12.01 9.84L12.01 9.84L12.01 9.84Q12.01 10.61 12.34 11.21L12.34 11.21L12.34 11.21Q12.67 11.80 13.24 12.13L13.24 12.13L13.24 12.13Q13.80 12.46 14.52 12.46L14.52 12.46ZM24.16 6.06L24.16 6.06Q25.24 6.06 26.10 6.54L26.10 6.54L26.10 6.54Q26.95 7.01 27.43 7.87L27.43 7.87L27.43 7.87Q27.92 8.72 27.92 9.84L27.92 9.84L27.92 9.84Q27.92 10.96 27.43 11.82L27.43 11.82L27.43 11.82Q26.95 12.68 26.10 13.16L26.10 13.16L26.10 13.16Q25.24 13.64 24.16 13.64L24.16 13.64L24.16 13.64Q23.34 13.64 22.65 13.31L22.65 13.31L22.65 13.31Q21.97 12.99 21.52 12.38L21.52 12.38L21.52 13.55L20.23 13.55L20.23 3.16L21.57 3.16L21.57 7.25L21.57 7.25Q22.02 6.66 22.69 6.36L22.69 6.36L22.69 6.36Q23.37 6.06 24.16 6.06L24.16 6.06ZM24.05 12.46L24.05 12.46Q24.77 12.46 25.33 12.13L25.33 12.13L25.33 12.13Q25.90 11.80 26.23 11.21L26.23 11.21L26.23 11.21Q26.56 10.61 26.56 9.84L26.56 9.84L26.56 9.84Q26.56 9.07 26.23 8.48L26.23 8.48L26.23 8.48Q25.90 7.88 25.33 7.56L25.33 7.56L25.33 7.56Q24.77 7.24 24.05 7.24L24.05 7.24L24.05 7.24Q23.35 7.24 22.78 7.56L22.78 7.56L22.78 7.56Q22.20 7.88 21.88 8.48L21.88 8.48L21.88 8.48Q21.56 9.07 21.56 9.84L21.56 9.84L21.56 9.84Q21.56 10.61 21.88 11.21L21.88 11.21L21.88 11.21Q22.20 11.80 22.78 12.13L22.78 12.13L22.78 12.13Q23.35 12.46 24.05 12.46L24.05 12.46ZM31.07 7.38L31.07 7.38Q31.42 6.73 32.10 6.40L32.10 6.40L32.10 6.40Q32.79 6.06 33.77 6.06L33.77 6.06L33.77 7.36L33.77 7.36Q33.66 7.35 33.46 7.35L33.46 7.35L33.46 7.35Q32.37 7.35 31.75 8.00L31.75 8.00L31.75 8.00Q31.12 8.65 31.12 9.86L31.12 9.86L31.12 13.55L29.78 13.55L29.78 6.13L31.07 6.13L31.07 7.38ZM41.17 3.16L42.52 3.16L42.52 13.55L41.23 13.55L41.23 12.38L41.23 12.38Q40.78 12.99 40.10 13.31L40.10 13.31L40.10 13.31Q39.41 13.64 38.58 13.64L38.58 13.64L38.58 13.64Q37.51 13.64 36.65 13.16L36.65 13.16L36.65 13.16Q35.80 12.68 35.32 11.82L35.32 11.82L35.32 11.82Q34.83 10.96 34.83 9.84L34.83 9.84L34.83 9.84Q34.83 8.72 35.32 7.87L35.32 7.87L35.32 7.87Q35.80 7.01 36.65 6.54L36.65 6.54L36.65 6.54Q37.51 6.06 38.58 6.06L38.58 6.06L38.58 6.06Q39.38 6.06 40.05 6.36L40.05 6.36L40.05 6.36Q40.73 6.66 41.17 7.25L41.17 7.25L41.17 3.16ZM38.70 12.46L38.70 12.46Q39.40 12.46 39.97 12.13L39.97 12.13L39.97 12.13Q40.54 11.80 40.87 11.21L40.87 11.21L40.87 11.21Q41.19 10.61 41.19 9.84L41.19 9.84L41.19 9.84Q41.19 9.07 40.87 8.48L40.87 8.48L40.87 8.48Q40.54 7.88 39.97 7.56L39.97 7.56L39.97 7.56Q39.40 7.24 38.70 7.24L38.70 7.24L38.70 7.24Q37.98 7.24 37.42 7.56L37.42 7.56L37.42 7.56Q36.85 7.88 36.52 8.48L36.52 8.48L36.52 8.48Q36.19 9.07 36.19 9.84L36.19 9.84L36.19 9.84Q36.19 10.61 36.52 11.21L36.52 11.21L36.52 11.21Q36.85 11.80 37.42 12.13L37.42 12.13L37.42 12.13Q37.98 12.46 38.70 12.46L38.70 12.46Z"></path></g><!----><g data-v-423bf9ae="" id="9f25db55-7276-4579-b27e-2e5780e9ae52" transform="matrix(1.0666666666666667,0,0,1.0666666666666667,-1.8959990819295243,0.7999999999999972)" stroke="none" fill="white"><path d="M67.86 35.516c-.04-.004-.068-.032-.1-.04-.64 1.224-1.004 2.796-1.136 4.64.084.004.168-.016.252 0a2.326 2.326 0 0 0 1.776-.328 2.32 2.32 0 0 0 1.024-1.476 2.365 2.365 0 0 0-1.816-2.796zM42.472 60.292l5.752 9.2 5.416-9.2zM28.272 35.472c-.032.008-.06.036-.096.04a2.364 2.364 0 0 0-1.82 2.796c.128.612.496 1.14 1.028 1.48.528.34 1.16.46 1.772.324.084-.016.168.004.252 0-.132-1.84-.492-3.416-1.136-4.64z"></path><path d="M93.696 20.228C93.696 9.076 86.936 0 78.632 0c-6.984 0-12.948 6.48-14.568 15.424-9.852-2.784-22.28-2.784-32.132 0C30.32 6.48 24.352 0 17.368 0 9.064 0 2.304 9.076 2.304 20.228c0 6.328 2.176 12.208 5.884 16.016-1.404 6.032-.5 20.676.428 25.64C12.924 84.844 25.804 96 47.996 96S83.072 84.84 87.38 61.884c.928-4.952 1.832-19.604.428-25.64 3.708-3.808 5.888-9.688 5.888-16.016zM73.588 39.14a6.325 6.325 0 0 1-2.764 4.008 6.284 6.284 0 0 1-3.436 1.02c-.252 0-.496-.052-.744-.084.408 5.696 2.172 12.688 4.328 18.88 1.728 4.972 1.252 10.04-1.332 14.276-2.116 3.476-5.5 6.008-8.62 6.452-.74.1-2.056.292-3.612.292-2.52 0-5.668-.488-8.032-2.604-.524-.476-.956-1.024-1.364-1.604-.4.584-.836 1.136-1.36 1.604-2.36 2.116-5.508 2.604-8.032 2.604-1.56 0-2.876-.188-3.612-.292-3.12-.444-6.504-2.98-8.616-6.452-2.584-4.24-3.06-9.312-1.332-14.276 2.152-6.192 3.92-13.18 4.324-18.876-.248.028-.492.08-.74.08-1.212 0-2.4-.344-3.436-1.02a6.313 6.313 0 0 1-2.764-4c-.572-2.676.656-5.308 2.844-6.688-.352-.56-.452-1.264-.148-1.904a2.003 2.003 0 0 1 2.664-.956c10.136 4.812 4.096 25.852 1.028 34.68-1.788 5.152-.16 9.032.972 10.892 1.716 2.82 4.192 4.344 5.76 4.576 4.02.568 6.772.136 8.408-1.336 1.084-.98 1.748-2.504 1.956-4.552L37.16 59.592c-.388-.616-.408-1.508-.056-2.148.352-.636 1.028-1.152 1.752-1.152h18.272c.716 0 1.38.388 1.736 1.004a2.002 2.002 0 0 1-.012 2.008l-8.656 15.148c.276 1.736.872 3.08 1.844 3.952 1.632 1.468 4.368 1.904 8.408 1.328 1.572-.224 4.048-1.752 5.764-4.572 1.132-1.852 2.756-5.736.968-10.892-3.076-8.828-9.12-29.86 1.032-34.676a2.003 2.003 0 0 1 2.664.956c.308.64.204 1.344-.148 1.908 2.2 1.388 3.428 4.016 2.86 6.684z"></path></g><!----></svg>