<svg data-v-fde0c5aa="" xmlns="http://www.w3.org/2000/svg" viewBox="0 0 300 300" class="iconLeft"><!----><defs data-v-fde0c5aa=""><!----></defs><rect data-v-fde0c5aa="" fill="transparent" x="0" y="0" width="300px" height="300px" class="logo-background-square"></rect><defs data-v-fde0c5aa=""><!----></defs><g data-v-fde0c5aa="" id="fbbf2353-8730-4262-9482-0dcb4c8ac108" fill="#2e3034" transform="matrix(2.82495752583539,0,0,2.82495752583539,91.1240459216067,126.27035584005142)"><path d="M8.41 13.55L4.66 9.20L2.87 11.02L2.87 13.55L1.47 13.55L1.47 3.75L2.87 3.75L2.87 9.23L8.19 3.75L9.79 3.75L5.60 8.16L10.05 13.55L8.41 13.55ZM14.52 13.64L14.52 13.64Q13.41 13.64 12.53 13.15L12.53 13.15L12.53 13.15Q11.65 12.66 11.15 11.79L11.15 11.79L11.15 11.79Q10.65 10.93 10.65 9.84L10.65 9.84L10.65 9.84Q10.65 8.75 11.15 7.89L11.15 7.89L11.15 7.89Q11.65 7.03 12.53 6.54L12.53 6.54L12.53 6.54Q13.41 6.06 14.52 6.06L14.52 6.06L14.52 6.06Q15.62 6.06 16.50 6.54L16.50 6.54L16.50 6.54Q17.37 7.03 17.87 7.89L17.87 7.89L17.87 7.89Q18.37 8.75 18.37 9.84L18.37 9.84L18.37 9.84Q18.37 10.93 17.87 11.79L17.87 11.79L17.87 11.79Q17.37 12.66 16.50 13.15L16.50 13.15L16.50 13.15Q15.62 13.64 14.52 13.64L14.52 13.64ZM14.52 12.46L14.52 12.46Q15.23 12.46 15.80 12.13L15.80 12.13L15.80 12.13Q16.37 11.80 16.69 11.21L16.69 11.21L16.69 11.21Q17.01 10.61 17.01 9.84L17.01 9.84L17.01 9.84Q17.01 9.07 16.69 8.48L16.69 8.48L16.69 8.48Q16.37 7.88 15.80 7.56L15.80 7.56L15.80 7.56Q15.23 7.24 14.52 7.24L14.52 7.24L14.52 7.24Q13.80 7.24 13.24 7.56L13.24 7.56L13.24 7.56Q12.67 7.88 12.34 8.48L12.34 8.48L12.34 8.48Q12.01 9.07 12.01 9.84L12.01 9.84L12.01 9.84Q12.01 10.61 12.34 11.21L12.34 11.21L12.34 11.21Q12.67 11.80 13.24 12.13L13.24 12.13L13.24 12.13Q13.80 12.46 14.52 12.46L14.52 12.46ZM24.16 6.06L24.16 6.06Q25.24 6.06 26.10 6.54L26.10 6.54L26.10 6.54Q26.95 7.01 27.43 7.87L27.43 7.87L27.43 7.87Q27.92 8.72 27.92 9.84L27.92 9.84L27.92 9.84Q27.92 10.96 27.43 11.82L27.43 11.82L27.43 11.82Q26.95 12.68 26.10 13.16L26.10 13.16L26.10 13.16Q25.24 13.64 24.16 13.64L24.16 13.64L24.16 13.64Q23.34 13.64 22.65 13.31L22.65 13.31L22.65 13.31Q21.97 12.99 21.52 12.38L21.52 12.38L21.52 13.55L20.23 13.55L20.23 3.16L21.57 3.16L21.57 7.25L21.57 7.25Q22.02 6.66 22.69 6.36L22.69 6.36L22.69 6.36Q23.37 6.06 24.16 6.06L24.16 6.06ZM24.05 12.46L24.05 12.46Q24.77 12.46 25.33 12.13L25.33 12.13L25.33 12.13Q25.90 11.80 26.23 11.21L26.23 11.21L26.23 11.21Q26.56 10.61 26.56 9.84L26.56 9.84L26.56 9.84Q26.56 9.07 26.23 8.48L26.23 8.48L26.23 8.48Q25.90 7.88 25.33 7.56L25.33 7.56L25.33 7.56Q24.77 7.24 24.05 7.24L24.05 7.24L24.05 7.24Q23.35 7.24 22.78 7.56L22.78 7.56L22.78 7.56Q22.20 7.88 21.88 8.48L21.88 8.48L21.88 8.48Q21.56 9.07 21.56 9.84L21.56 9.84L21.56 9.84Q21.56 10.61 21.88 11.21L21.88 11.21L21.88 11.21Q22.20 11.80 22.78 12.13L22.78 12.13L22.78 12.13Q23.35 12.46 24.05 12.46L24.05 12.46ZM32.96 13.64L32.96 13.64Q31.85 13.64 30.97 13.15L30.97 13.15L30.97 13.15Q30.09 12.66 29.59 11.79L29.59 11.79L29.59 11.79Q29.09 10.93 29.09 9.84L29.09 9.84L29.09 9.84Q29.09 8.75 29.59 7.89L29.59 7.89L29.59 7.89Q30.09 7.03 30.97 6.54L30.97 6.54L30.97 6.54Q31.85 6.06 32.96 6.06L32.96 6.06L32.96 6.06Q34.06 6.06 34.94 6.54L34.94 6.54L34.94 6.54Q35.81 7.03 36.31 7.89L36.31 7.89L36.31 7.89Q36.81 8.75 36.81 9.84L36.81 9.84L36.81 9.84Q36.81 10.93 36.31 11.79L36.31 11.79L36.31 11.79Q35.81 12.66 34.94 13.15L34.94 13.15L34.94 13.15Q34.06 13.64 32.96 13.64L32.96 13.64ZM32.96 12.46L32.96 12.46Q33.67 12.46 34.24 12.13L34.24 12.13L34.24 12.13Q34.80 11.80 35.13 11.21L35.13 11.21L35.13 11.21Q35.45 10.61 35.45 9.84L35.45 9.84L35.45 9.84Q35.45 9.07 35.13 8.48L35.13 8.48L35.13 8.48Q34.80 7.88 34.24 7.56L34.24 7.56L34.24 7.56Q33.67 7.24 32.96 7.24L32.96 7.24L32.96 7.24Q32.24 7.24 31.68 7.56L31.68 7.56L31.68 7.56Q31.11 7.88 30.78 8.48L30.78 8.48L30.78 8.48Q30.45 9.07 30.45 9.84L30.45 9.84L30.45 9.84Q30.45 10.61 30.78 11.21L30.78 11.21L30.78 11.21Q31.11 11.80 31.68 12.13L31.68 12.13L31.68 12.13Q32.24 12.46 32.96 12.46L32.96 12.46ZM41.37 6.06L41.37 6.06Q42.91 6.06 43.73 6.82L43.73 6.82L43.73 6.82Q44.55 7.57 44.55 9.07L44.55 9.07L44.55 13.55L43.27 13.55L43.27 12.57L43.27 12.57Q42.94 13.09 42.32 13.36L42.32 13.36L42.32 13.36Q41.69 13.64 40.84 13.64L40.84 13.64L40.84 13.64Q39.59 13.64 38.84 13.03L38.84 13.03L38.84 13.03Q38.09 12.43 38.09 11.45L38.09 11.45L38.09 11.45Q38.09 10.47 38.81 9.88L38.81 9.88L38.81 9.88Q39.52 9.28 41.08 9.28L41.08 9.28L43.20 9.28L43.20 9.02L43.20 9.02Q43.20 8.15 42.70 7.69L42.70 7.69L42.70 7.69Q42.20 7.22 41.22 7.22L41.22 7.22L41.22 7.22Q40.56 7.22 39.93 7.44L39.93 7.44L39.93 7.44Q39.30 7.66 38.86 8.02L38.86 8.02L38.30 7.01L38.30 7.01Q38.88 6.55 39.68 6.31L39.68 6.31L39.68 6.31Q40.47 6.06 41.37 6.06L41.37 6.06ZM41.06 12.60L41.06 12.60Q41.83 12.60 42.39 12.26L42.39 12.26L42.39 12.26Q42.95 11.91 43.20 11.28L43.20 11.28L43.20 10.25L41.13 10.25L41.13 10.25Q39.42 10.25 39.42 11.40L39.42 11.40L39.42 11.40Q39.42 11.96 39.86 12.28L39.86 12.28L39.86 12.28Q40.29 12.60 41.06 12.60L41.06 12.60ZM48.33 7.38L48.33 7.38Q48.68 6.73 49.36 6.40L49.36 6.40L49.36 6.40Q50.05 6.06 51.03 6.06L51.03 6.06L51.03 7.36L51.03 7.36Q50.92 7.35 50.72 7.35L50.72 7.35L50.72 7.35Q49.63 7.35 49.01 8.00L49.01 8.00L49.01 8.00Q48.38 8.65 48.38 9.86L48.38 9.86L48.38 13.55L47.04 13.55L47.04 6.13L48.33 6.13L48.33 7.38ZM58.44 3.16L59.78 3.16L59.78 13.55L58.49 13.55L58.49 12.38L58.49 12.38Q58.04 12.99 57.36 13.31L57.36 13.31L57.36 13.31Q56.67 13.64 55.85 13.64L55.85 13.64L55.85 13.64Q54.77 13.64 53.91 13.16L53.91 13.16L53.91 13.16Q53.06 12.68 52.58 11.82L52.58 11.82L52.58 11.82Q52.09 10.96 52.09 9.84L52.09 9.84L52.09 9.84Q52.09 8.72 52.58 7.87L52.58 7.87L52.58 7.87Q53.06 7.01 53.91 6.54L53.91 6.54L53.91 6.54Q54.77 6.06 55.85 6.06L55.85 6.06L55.85 6.06Q56.64 6.06 57.32 6.36L57.32 6.36L57.32 6.36Q57.99 6.66 58.44 7.25L58.44 7.25L58.44 3.16ZM55.96 12.46L55.96 12.46Q56.66 12.46 57.23 12.13L57.23 12.13L57.23 12.13Q57.81 11.80 58.13 11.21L58.13 11.21L58.13 11.21Q58.45 10.61 58.45 9.84L58.45 9.84L58.45 9.84Q58.45 9.07 58.13 8.48L58.13 8.48L58.13 8.48Q57.81 7.88 57.23 7.56L57.23 7.56L57.23 7.56Q56.66 7.24 55.96 7.24L55.96 7.24L55.96 7.24Q55.24 7.24 54.68 7.56L54.68 7.56L54.68 7.56Q54.11 7.88 53.78 8.48L53.78 8.48L53.78 8.48Q53.45 9.07 53.45 9.84L53.45 9.84L53.45 9.84Q53.45 10.61 53.78 11.21L53.78 11.21L53.78 11.21Q54.11 11.80 54.68 12.13L54.68 12.13L54.68 12.13Q55.24 12.46 55.96 12.46L55.96 12.46Z"></path></g><defs data-v-fde0c5aa=""><!----></defs><g data-v-fde0c5aa="" id="4d351a0d-8391-4a65-8279-6c292f3340d1" stroke="none" fill="#488eff" transform="matrix(0.4625868167450218,0,0,0.4625868167450218,38.934200020099816,127.79583279623895)"><path d="M67.86 35.516c-.04-.004-.068-.032-.1-.04-.64 1.224-1.004 2.796-1.136 4.64.084.004.168-.016.252 0a2.326 2.326 0 0 0 1.776-.328 2.32 2.32 0 0 0 1.024-1.476 2.365 2.365 0 0 0-1.816-2.796zM42.472 60.292l5.752 9.2 5.416-9.2zM28.272 35.472c-.032.008-.06.036-.096.04a2.364 2.364 0 0 0-1.82 2.796c.128.612.496 1.14 1.028 1.48.528.34 1.16.46 1.772.324.084-.016.168.004.252 0-.132-1.84-.492-3.416-1.136-4.64z"></path><path d="M93.696 20.228C93.696 9.076 86.936 0 78.632 0c-6.984 0-12.948 6.48-14.568 15.424-9.852-2.784-22.28-2.784-32.132 0C30.32 6.48 24.352 0 17.368 0 9.064 0 2.304 9.076 2.304 20.228c0 6.328 2.176 12.208 5.884 16.016-1.404 6.032-.5 20.676.428 25.64C12.924 84.844 25.804 96 47.996 96S83.072 84.84 87.38 61.884c.928-4.952 1.832-19.604.428-25.64 3.708-3.808 5.888-9.688 5.888-16.016zM73.588 39.14a6.325 6.325 0 0 1-2.764 4.008 6.284 6.284 0 0 1-3.436 1.02c-.252 0-.496-.052-.744-.084.408 5.696 2.172 12.688 4.328 18.88 1.728 4.972 1.252 10.04-1.332 14.276-2.116 3.476-5.5 6.008-8.62 6.452-.74.1-2.056.292-3.612.292-2.52 0-5.668-.488-8.032-2.604-.524-.476-.956-1.024-1.364-1.604-.4.584-.836 1.136-1.36 1.604-2.36 2.116-5.508 2.604-8.032 2.604-1.56 0-2.876-.188-3.612-.292-3.12-.444-6.504-2.98-8.616-6.452-2.584-4.24-3.06-9.312-1.332-14.276 2.152-6.192 3.92-13.18 4.324-18.876-.248.028-.492.08-.74.08-1.212 0-2.4-.344-3.436-1.02a6.313 6.313 0 0 1-2.764-4c-.572-2.676.656-5.308 2.844-6.688-.352-.56-.452-1.264-.148-1.904a2.003 2.003 0 0 1 2.664-.956c10.136 4.812 4.096 25.852 1.028 34.68-1.788 5.152-.16 9.032.972 10.892 1.716 2.82 4.192 4.344 5.76 4.576 4.02.568 6.772.136 8.408-1.336 1.084-.98 1.748-2.504 1.956-4.552L37.16 59.592c-.388-.616-.408-1.508-.056-2.148.352-.636 1.028-1.152 1.752-1.152h18.272c.716 0 1.38.388 1.736 1.004a2.002 2.002 0 0 1-.012 2.008l-8.656 15.148c.276 1.736.872 3.08 1.844 3.952 1.632 1.468 4.368 1.904 8.408 1.328 1.572-.224 4.048-1.752 5.764-4.572 1.132-1.852 2.756-5.736.968-10.892-3.076-8.828-9.12-29.86 1.032-34.676a2.003 2.003 0 0 1 2.664.956c.308.64.204 1.344-.148 1.908 2.2 1.388 3.428 4.016 2.86 6.684z"></path></g><!----></svg>